<mxfile host="65bd71144e" modified="2020-12-03T18:09:53.673Z" agent="5.0 (Windows NT 10.0; Win64; x64) AppleWebKit/537.36 (KHTML, like Gecko) Code/1.51.1 Chrome/83.0.4103.122 Electron/9.3.3 Safari/537.36" version="13.10.0" etag="zQS4wGPLguUlOBFelEEm" type="embed">
    <diagram id="KzSVZO3NOcvOjDE--Dgn" name="Page-1">
        <mxGraphModel dx="234" dy="143" grid="1" gridSize="10" guides="1" tooltips="1" connect="1" arrows="1" fold="1" page="1" pageScale="1" pageWidth="827" pageHeight="1169" math="0" shadow="0">
            <root>
                <mxCell id="0"/>
                <mxCell id="1" parent="0"/>
                <mxCell id="47" value="" style="rounded=0;whiteSpace=wrap;html=1;" vertex="1" parent="1">
                    <mxGeometry x="40" y="190" width="540" height="760" as="geometry"/>
                </mxCell>
                <mxCell id="30" value="" style="edgeStyle=orthogonalEdgeStyle;rounded=0;orthogonalLoop=1;jettySize=auto;html=1;" edge="1" parent="1" source="28" target="29">
                    <mxGeometry relative="1" as="geometry"/>
                </mxCell>
                <mxCell id="50" value="" style="edgeStyle=orthogonalEdgeStyle;rounded=0;orthogonalLoop=1;jettySize=auto;html=1;" edge="1" parent="1" source="28" target="51">
                    <mxGeometry relative="1" as="geometry">
                        <mxPoint x="210" y="140" as="targetPoint"/>
                    </mxGeometry>
                </mxCell>
                <mxCell id="28" value="画像取得" style="rounded=0;whiteSpace=wrap;html=1;" vertex="1" parent="1">
                    <mxGeometry x="150" y="240" width="120" height="60" as="geometry"/>
                </mxCell>
                <mxCell id="32" value="" style="edgeStyle=orthogonalEdgeStyle;rounded=0;orthogonalLoop=1;jettySize=auto;html=1;" edge="1" parent="1" source="29" target="31">
                    <mxGeometry relative="1" as="geometry"/>
                </mxCell>
                <mxCell id="29" value="占有率O, 位置PG&lt;br&gt;を算出" style="whiteSpace=wrap;html=1;rounded=0;" vertex="1" parent="1">
                    <mxGeometry x="150" y="380" width="120" height="60" as="geometry"/>
                </mxCell>
                <mxCell id="34" value="" style="edgeStyle=orthogonalEdgeStyle;rounded=0;orthogonalLoop=1;jettySize=auto;html=1;" edge="1" parent="1" source="31" target="33">
                    <mxGeometry relative="1" as="geometry"/>
                </mxCell>
                <mxCell id="42" value="" style="edgeStyle=orthogonalEdgeStyle;rounded=0;orthogonalLoop=1;jettySize=auto;html=1;" edge="1" parent="1" source="31" target="41">
                    <mxGeometry relative="1" as="geometry"/>
                </mxCell>
                <mxCell id="31" value="O&amp;gt;O_T" style="rhombus;whiteSpace=wrap;html=1;rounded=0;" vertex="1" parent="1">
                    <mxGeometry x="160" y="510" width="100" height="80" as="geometry"/>
                </mxCell>
                <mxCell id="36" value="" style="edgeStyle=orthogonalEdgeStyle;rounded=0;orthogonalLoop=1;jettySize=auto;html=1;" edge="1" parent="1" source="33" target="35">
                    <mxGeometry relative="1" as="geometry"/>
                </mxCell>
                <mxCell id="33" value="距離Dを算出" style="whiteSpace=wrap;html=1;rounded=0;" vertex="1" parent="1">
                    <mxGeometry x="150" y="680" width="120" height="60" as="geometry"/>
                </mxCell>
                <mxCell id="38" value="" style="edgeStyle=orthogonalEdgeStyle;rounded=0;orthogonalLoop=1;jettySize=auto;html=1;" edge="1" parent="1" source="35" target="37">
                    <mxGeometry relative="1" as="geometry"/>
                </mxCell>
                <mxCell id="40" value="" style="edgeStyle=orthogonalEdgeStyle;rounded=0;orthogonalLoop=1;jettySize=auto;html=1;" edge="1" parent="1" source="35" target="39">
                    <mxGeometry relative="1" as="geometry"/>
                </mxCell>
                <mxCell id="35" value="&lt;span&gt;D&amp;lt;D_T&lt;/span&gt;" style="rhombus;whiteSpace=wrap;html=1;rounded=0;" vertex="1" parent="1">
                    <mxGeometry x="150" y="810" width="120" height="80" as="geometry"/>
                </mxCell>
                <mxCell id="37" value="終了" style="ellipse;whiteSpace=wrap;html=1;rounded=0;" vertex="1" parent="1">
                    <mxGeometry x="150" y="970" width="120" height="80" as="geometry"/>
                </mxCell>
                <mxCell id="39" value="微小前進" style="whiteSpace=wrap;html=1;rounded=0;" vertex="1" parent="1">
                    <mxGeometry x="350" y="820" width="120" height="60" as="geometry"/>
                </mxCell>
                <mxCell id="44" value="" style="edgeStyle=orthogonalEdgeStyle;rounded=0;orthogonalLoop=1;jettySize=auto;html=1;" edge="1" parent="1" source="41" target="43">
                    <mxGeometry relative="1" as="geometry"/>
                </mxCell>
                <mxCell id="41" value="PGの値から&lt;br&gt;移動方向を決定" style="whiteSpace=wrap;html=1;rounded=0;" vertex="1" parent="1">
                    <mxGeometry x="330" y="520" width="120" height="60" as="geometry"/>
                </mxCell>
                <mxCell id="43" value="決定された方向へ&lt;br&gt;移動" style="whiteSpace=wrap;html=1;rounded=0;" vertex="1" parent="1">
                    <mxGeometry x="330" y="380" width="120" height="60" as="geometry"/>
                </mxCell>
                <mxCell id="45" value="" style="endArrow=classic;html=1;exitX=0.5;exitY=0;exitDx=0;exitDy=0;entryX=1;entryY=0.5;entryDx=0;entryDy=0;" edge="1" parent="1" source="43" target="28">
                    <mxGeometry width="50" height="50" relative="1" as="geometry">
                        <mxPoint x="250" y="390" as="sourcePoint"/>
                        <mxPoint x="300" y="340" as="targetPoint"/>
                        <Array as="points">
                            <mxPoint x="390" y="270"/>
                        </Array>
                    </mxGeometry>
                </mxCell>
                <mxCell id="46" value="" style="endArrow=classic;html=1;entryX=1;entryY=0.25;entryDx=0;entryDy=0;" edge="1" parent="1" target="28">
                    <mxGeometry width="50" height="50" relative="1" as="geometry">
                        <mxPoint x="470" y="850" as="sourcePoint"/>
                        <mxPoint x="510" y="347.33331298828125" as="targetPoint"/>
                        <Array as="points">
                            <mxPoint x="520" y="850"/>
                            <mxPoint x="520" y="255"/>
                        </Array>
                    </mxGeometry>
                </mxCell>
                <mxCell id="48" value="Main　スレッド" style="text;html=1;strokeColor=none;fillColor=none;align=center;verticalAlign=middle;whiteSpace=wrap;rounded=0;" vertex="1" parent="1">
                    <mxGeometry x="50" y="200" width="100" height="20" as="geometry"/>
                </mxCell>
                <mxCell id="51" value="GoalSearchNode" style="shape=hexagon;perimeter=hexagonPerimeter2;whiteSpace=wrap;html=1;fixedSize=1;" vertex="1" parent="1">
                    <mxGeometry x="150" y="70" width="120" height="80" as="geometry"/>
                </mxCell>
                <mxCell id="52" value="Text" style="text;html=1;strokeColor=none;fillColor=none;align=center;verticalAlign=middle;whiteSpace=wrap;rounded=0;" vertex="1" parent="1">
                    <mxGeometry x="220" y="620" width="40" height="20" as="geometry"/>
                </mxCell>
                <mxCell id="53" value="False" style="text;html=1;strokeColor=none;fillColor=none;align=center;verticalAlign=middle;whiteSpace=wrap;rounded=0;" vertex="1" parent="1">
                    <mxGeometry x="290" y="820" width="40" height="20" as="geometry"/>
                </mxCell>
                <mxCell id="54" value="True" style="text;html=1;strokeColor=none;fillColor=none;align=center;verticalAlign=middle;whiteSpace=wrap;rounded=0;" vertex="1" parent="1">
                    <mxGeometry x="210" y="910" width="40" height="20" as="geometry"/>
                </mxCell>
                <mxCell id="56" value="False" style="text;html=1;strokeColor=none;fillColor=none;align=center;verticalAlign=middle;whiteSpace=wrap;rounded=0;" vertex="1" parent="1">
                    <mxGeometry x="270" y="520" width="40" height="20" as="geometry"/>
                </mxCell>
            </root>
        </mxGraphModel>
    </diagram>
</mxfile>